<svg width="116" height="116" viewBox="0 0 116 116" fill="none" xmlns="http://www.w3.org/2000/svg">
<rect width="8" height="8" rx="2" fill="#D1DBE4"/>
<rect x="18" width="8" height="8" rx="2" fill="#D1DBE4"/>
<rect x="36" width="8" height="8" rx="2" fill="#D1DBE4"/>
<rect x="54" width="8" height="8" rx="2" fill="#D1DBE4"/>
<rect x="72" width="8" height="8" rx="2" fill="#D1DBE4"/>
<rect x="90" width="8" height="8" rx="2" fill="#D1DBE4"/>
<rect x="108" width="8" height="8" rx="2" fill="#D1DBE4"/>
<rect y="18" width="8" height="8" rx="2" fill="#D1DBE4"/>
<rect x="18" y="18" width="8" height="8" rx="2" fill="#D1DBE4"/>
<rect x="36" y="18" width="8" height="8" rx="2" fill="#D1DBE4"/>
<rect x="54" y="18" width="8" height="8" rx="2" fill="#D1DBE4"/>
<rect x="72" y="18" width="8" height="8" rx="2" fill="#D1DBE4"/>
<rect x="90" y="18" width="8" height="8" rx="2" fill="#D1DBE4"/>
<rect x="108" y="18" width="8" height="8" rx="2" fill="#D1DBE4"/>
<rect y="36" width="8" height="8" rx="2" fill="#D1DBE4"/>
<rect x="18" y="36" width="8" height="8" rx="2" fill="#D1DBE4"/>
<rect x="36" y="36" width="8" height="8" rx="2" fill="#D1DBE4"/>
<rect x="54" y="36" width="8" height="8" rx="2" fill="#D1DBE4"/>
<rect x="72" y="36" width="8" height="8" rx="2" fill="#D1DBE4"/>
<rect x="90" y="36" width="8" height="8" rx="2" fill="#D1DBE4"/>
<rect x="108" y="36" width="8" height="8" rx="2" fill="#D1DBE4"/>
<rect y="54" width="8" height="8" rx="2" fill="#D1DBE4"/>
<rect x="18" y="54" width="8" height="8" rx="2" fill="#D1DBE4"/>
<rect x="36" y="54" width="8" height="8" rx="2" fill="#D1DBE4"/>
<rect x="54" y="54" width="8" height="8" rx="2" fill="#D1DBE4"/>
<rect x="72" y="54" width="8" height="8" rx="2" fill="#D1DBE4"/>
<rect x="90" y="54" width="8" height="8" rx="2" fill="#D1DBE4"/>
<rect x="108" y="54" width="8" height="8" rx="2" fill="#D1DBE4"/>
<rect y="72" width="8" height="8" rx="2" fill="#D1DBE4"/>
<rect x="18" y="72" width="8" height="8" rx="2" fill="#D1DBE4"/>
<rect x="36" y="72" width="8" height="8" rx="2" fill="#D1DBE4"/>
<rect x="54" y="72" width="8" height="8" rx="2" fill="#D1DBE4"/>
<rect x="72" y="72" width="8" height="8" rx="2" fill="#D1DBE4"/>
<rect x="90" y="72" width="8" height="8" rx="2" fill="#D1DBE4"/>
<rect x="108" y="72" width="8" height="8" rx="2" fill="#D1DBE4"/>
<rect y="90" width="8" height="8" rx="2" fill="#D1DBE4"/>
<rect x="18" y="90" width="8" height="8" rx="2" fill="#D1DBE4"/>
<rect x="36" y="90" width="8" height="8" rx="2" fill="#D1DBE4"/>
<rect x="54" y="90" width="8" height="8" rx="2" fill="#D1DBE4"/>
<rect x="72" y="90" width="8" height="8" rx="2" fill="#D1DBE4"/>
<rect x="90" y="90" width="8" height="8" rx="2" fill="#D1DBE4"/>
<rect x="108" y="90" width="8" height="8" rx="2" fill="#D1DBE4"/>
<rect y="108" width="8" height="8" rx="2" fill="#D1DBE4"/>
<rect x="18" y="108" width="8" height="8" rx="2" fill="#D1DBE4"/>
<rect x="36" y="108" width="8" height="8" rx="2" fill="#D1DBE4"/>
<rect x="54" y="108" width="8" height="8" rx="2" fill="#D1DBE4"/>
<rect x="72" y="108" width="8" height="8" rx="2" fill="#D1DBE4"/>
<rect x="90" y="108" width="8" height="8" rx="2" fill="#D1DBE4"/>
<rect x="108" y="108" width="8" height="8" rx="2" fill="#D1DBE4"/>
</svg>